<?xml version="1.0" encoding="utf-8"?>
<!-- Generator: Adobe Illustrator 19.2.1, SVG Export Plug-In . SVG Version: 6.00 Build 0)  -->
<svg version="1.1" id="Layer_1" xmlns="http://www.w3.org/2000/svg" xmlns:xlink="http://www.w3.org/1999/xlink" x="0px" y="0px"
	 viewBox="0 0 1129 609" style="enable-background:new 0 0 1129 609;" xml:space="preserve">
<style type="text/css">
	.st0{fill:none;stroke:#FFFFFF;stroke-miterlimit:10;}
	.st1{fill:#FFFFFF;}
</style>
<g id="XMLID_89_">
	<rect id="XMLID_97_" x="57" y="94" class="st0" width="317.1" height="157.6"/>
	<rect id="XMLID_96_" x="374.6" y="94" class="st0" width="317.1" height="157.6"/>
	<rect id="XMLID_95_" x="691.6" y="94" class="st0" width="317.1" height="157.6"/>
	<rect id="XMLID_94_" x="57.2" y="409.2" class="st0" width="317.1" height="157.6"/>
	<rect id="XMLID_93_" x="374.8" y="409.2" class="st0" width="317.1" height="157.6"/>
	<rect id="XMLID_92_" x="691.9" y="409.2" class="st0" width="317.1" height="157.6"/>
	<line id="XMLID_91_" class="st0" x1="57" y1="251.6" x2="57" y2="409.2"/>
	<line id="XMLID_90_" class="st0" x1="1008.7" y1="251.6" x2="1008.7" y2="409.2"/>
</g>
<g>
	<path class="st1" d="M97.6,351.4v-55.3h8.7c5,0,8.7,0.3,11.1,1c3.3,0.9,6,2.5,7.9,4.9c2,2.4,2.9,5.2,2.9,8.4c0,2.1-0.4,4-1.3,5.7
		c-0.9,1.7-2.3,3.3-4.3,4.8c3.4,1.6,5.8,3.6,7.4,5.9c1.6,2.4,2.3,5.2,2.3,8.4c0,3.1-0.8,5.9-2.4,8.5s-3.7,4.5-6.2,5.7
		c-2.5,1.3-6,1.9-10.5,1.9H97.6z M108.1,306.1v11.7h2.3c2.6,0,4.5-0.5,5.7-1.6c1.2-1.1,1.9-2.5,1.9-4.4c0-1.7-0.6-3.1-1.8-4.1
		c-1.2-1-3-1.5-5.4-1.5H108.1z M108.1,327.2v14.2h2.6c4.4,0,7.3-0.6,8.8-1.7c1.5-1.1,2.3-2.7,2.3-4.8c0-2.4-0.9-4.3-2.7-5.6
		c-1.8-1.4-4.8-2.1-8.9-2.1H108.1z"/>
	<path class="st1" d="M183.9,296.1h10.5v45.3h15.3v10h-25.9V296.1z"/>
	<path class="st1" d="M285.5,294.7c7.8,0,14.6,2.8,20.2,8.5c5.6,5.7,8.4,12.6,8.4,20.7c0,8.1-2.8,14.9-8.3,20.5
		c-5.6,5.6-12.3,8.4-20.2,8.4c-8.3,0-15.2-2.9-20.7-8.6c-5.5-5.7-8.2-12.6-8.2-20.5c0-5.3,1.3-10.2,3.8-14.6
		c2.6-4.4,6.1-8,10.6-10.5C275.5,296,280.3,294.7,285.5,294.7z M285.4,305c-5.1,0-9.4,1.8-12.9,5.3c-3.5,3.6-5.2,8.1-5.2,13.6
		c0,6.1,2.2,11,6.6,14.5c3.4,2.8,7.3,4.2,11.7,4.2c5,0,9.2-1.8,12.8-5.4c3.5-3.6,5.3-8.1,5.3-13.4c0-5.3-1.8-9.7-5.3-13.4
		C294.7,306.8,290.4,305,285.4,305z"/>
	<path class="st1" d="M416.5,305.8l-7.4,7c-5-5.3-10.6-7.9-16.9-7.9c-5.3,0-9.7,1.8-13.4,5.4s-5.4,8.1-5.4,13.4c0,3.7,0.8,7,2.4,9.8
		c1.6,2.9,3.9,5.1,6.8,6.7c2.9,1.6,6.2,2.4,9.8,2.4c3.1,0,5.8-0.6,8.4-1.7c2.5-1.1,5.3-3.2,8.3-6.2l7.1,7.4c-4.1,4-7.9,6.8-11.6,8.3
		c-3.6,1.5-7.8,2.3-12.4,2.3c-8.6,0-15.6-2.7-21.1-8.2s-8.2-12.4-8.2-21c0-5.5,1.2-10.4,3.7-14.7c2.5-4.3,6.1-7.7,10.7-10.3
		c4.7-2.6,9.7-3.9,15-3.9c4.6,0,9,1,13.2,2.9C409.8,299.5,413.4,302.3,416.5,305.8z"/>
	<path class="st1" d="M467.4,296.1H478v19.1l15-19.1h12.6l-19.3,24.7l21.2,30.6h-12.5L478,326.8v24.6h-10.6V296.1z"/>
	<path class="st1" d="M556.6,296.1h10.7V317h18.5v-20.9h10.6v55.3h-10.6v-24.3h-18.5v24.3h-10.7V296.1z"/>
	<path class="st1" d="M676.8,294.7c7.8,0,14.6,2.8,20.2,8.5c5.6,5.7,8.4,12.6,8.4,20.7c0,8.1-2.8,14.9-8.3,20.5
		c-5.6,5.6-12.3,8.4-20.2,8.4c-8.3,0-15.2-2.9-20.7-8.6c-5.5-5.7-8.2-12.6-8.2-20.5c0-5.3,1.3-10.2,3.8-14.6
		c2.6-4.4,6.1-8,10.6-10.5C666.8,296,671.6,294.7,676.8,294.7z M676.7,305c-5.1,0-9.4,1.8-12.9,5.3c-3.5,3.6-5.2,8.1-5.2,13.6
		c0,6.1,2.2,11,6.6,14.5c3.4,2.8,7.3,4.2,11.7,4.2c5,0,9.2-1.8,12.8-5.4c3.5-3.6,5.3-8.1,5.3-13.4c0-5.3-1.8-9.7-5.3-13.4
		C686,306.8,681.7,305,676.7,305z"/>
	<path class="st1" d="M756.6,296.1h10.6v35.8c0,3.1,0.3,5.3,0.8,6.5c0.5,1.3,1.4,2.3,2.7,3.1c1.2,0.8,2.7,1.1,4.5,1.1
		c1.9,0,3.5-0.4,4.8-1.3c1.3-0.9,2.3-1.9,2.8-3.3c0.5-1.3,0.8-3.8,0.8-7.5v-34.5H794v33c0,5.6-0.3,9.4-0.9,11.6
		c-0.6,2.2-1.8,4.2-3.6,6.2c-1.8,2-3.8,3.5-6.1,4.5c-2.3,1-5,1.4-8,1.4c-4,0-7.5-0.9-10.5-2.8c-3-1.8-5.1-4.1-6.4-6.9
		c-1.3-2.8-1.9-7.5-1.9-14V296.1z"/>
	<path class="st1" d="M876.9,303.6l-7.8,6.9c-2.7-3.8-5.5-5.7-8.4-5.7c-1.4,0-2.5,0.4-3.4,1.1c-0.9,0.7-1.3,1.6-1.3,2.5
		s0.3,1.8,0.9,2.6c0.9,1.1,3.4,3.5,7.7,7.1c4,3.4,6.5,5.5,7.3,6.4c2.1,2.2,3.6,4.2,4.5,6.2c0.9,2,1.3,4.1,1.3,6.5
		c0,4.5-1.6,8.3-4.7,11.2c-3.1,3-7.2,4.4-12.3,4.4c-3.9,0-7.4-1-10.3-2.9s-5.4-5-7.5-9.1l8.9-5.3c2.7,4.9,5.7,7.3,9.2,7.3
		c1.8,0,3.3-0.5,4.6-1.6c1.2-1.1,1.8-2.3,1.8-3.6c0-1.3-0.5-2.5-1.4-3.8c-0.9-1.3-3-3.2-6.1-5.8c-6-4.9-9.9-8.7-11.7-11.4
		c-1.8-2.7-2.6-5.3-2.6-8c0-3.8,1.5-7.1,4.4-9.9c2.9-2.7,6.5-4.1,10.8-4.1c2.8,0,5.4,0.6,7.9,1.9C871.3,297.9,874,300.2,876.9,303.6
		z"/>
	<path class="st1" d="M929.5,296.1h30.2v10.3H940v10h19.7v10.1H940v14.6h19.7v10.3h-30.2V296.1z"/>
</g>
</svg>
